Coordinates
version=1
nRows=27
nColumns=26
inDegrees=yes

Units are S.I. units (second, meters, Newtons, ...)
Angles are in degrees.

endheader
time	pelvis_tilt	pelvis_list	pelvis_rotation	pelvis_tx	pelvis_ty	pelvis_tz	hip_flexion_r	hip_adduction_r	hip_rotation_r	knee_angle_r	knee_angle_r_beta	ankle_angle_r	subtalar_angle_r	mtp_angle_r	hip_flexion_l	hip_adduction_l	hip_rotation_l	knee_angle_l	knee_angle_l_beta	ankle_angle_l	subtalar_angle_l	mtp_angle_l	lumbar_extension	lumbar_bending	lumbar_rotation
     77.41951906	    -12.31439421	      0.75263410	     -0.07162092	      0.11071752	      1.07855298	      0.21805551	     -5.84186228	      2.06170831	      6.27634281	     25.86901659	     25.86901659	    -28.85583842	    -19.75625151	      0.00000000	     33.26127710	      1.93967743	     -0.18112553	     19.08679220	     19.08679220	     -2.95819201	     -5.14550979	      0.00000000	     -5.89056826	     -2.46045304	     14.27301637
     77.42951906	    -11.75629874	      0.60514388	      0.29289010	      0.11188645	      1.07709967	      0.21746085	     -5.82273912	      2.50845224	      6.79301820	     29.42377356	     29.42377356	    -30.62340625	    -22.08468712	      0.00000000	     32.64532392	      1.82936683	     -1.29855912	     17.41398213	     17.41398213	     -2.93436076	     -3.01059655	      0.00000000	     -6.51550192	     -2.49225693	     14.00616869
     77.43951906	    -11.30689944	      0.70045588	      0.78576702	      0.11264749	      1.07454097	      0.21655164	     -5.28272823	      2.68282843	      6.90356231	     33.85278676	     33.85278676	    -30.23108356	    -23.40803440	      0.00000000	     32.21321639	      2.11018730	     -1.94651694	     16.54528732	     16.54528732	     -2.59779869	     -1.91636938	      0.00000000	     -7.04913917	     -2.80447784	     13.54527952
     77.44951906	    -10.85088454	      0.69846195	      1.10678149	      0.11316908	      1.07106451	      0.21611391	     -4.48843531	      3.05669864	      7.30104997	     38.72730318	     38.72730318	    -28.87363837	    -24.32614496	      0.00000000	     31.93907889	      2.14525720	     -2.85667559	     16.65655022	     16.65655022	     -1.97135814	     -1.01364595	      0.00000000	     -7.59629513	     -3.03385287	     13.33553456
     77.45951906	    -10.11256205	      0.70880071	      1.55622052	      0.11388501	      1.06694860	      0.21566388	     -3.89063519	      3.49348030	      7.48666497	     43.67194012	     43.67194012	    -27.50877962	    -25.37279721	      0.00000000	     31.34655140	      2.28365239	     -3.40819005	     17.33159042	     17.33159042	     -1.87212289	     -1.17451142	      0.00000000	     -8.45218544	     -3.27238036	     12.87977999
     77.46951906	     -9.46809718	      0.79713286	      1.83993879	      0.11436407	      1.06183611	      0.21569796	     -2.96923768	      3.81674026	      7.60639432	     48.85295500	     48.85295500	    -25.69954225	    -25.67225262	      0.00000000	     30.97144762	      2.39169090	     -4.00015894	     18.86778997	     18.86778997	     -2.46584284	     -2.48695939	      0.00000000	     -9.20303646	     -3.70209606	     12.47456132
     77.47951906	     -9.42344122	      1.04517388	      2.09993467	      0.11394338	      1.05508873	      0.21533150	     -1.04667400	      3.70894793	      7.28289884	     54.44256586	     54.44256586	    -22.99968385	    -24.56808331	      0.00000000	     31.20406200	      3.01421480	     -3.17702528	     21.27438602	     21.27438602	     -2.83496333	     -6.37939765	      0.00000000	     -9.30373701	     -4.24035918	     12.13508046
     77.48951906	     -9.09013237	      1.21222297	      2.46178913	      0.11350089	      1.04771881	      0.21487657	      0.60253234	      3.56232945	      6.58905190	     59.73047451	     59.73047451	    -21.14668430	    -24.06528287	      0.00000000	     31.14585871	      3.76894685	     -2.07348841	     25.07618496	     25.07618496	      0.79394382	     -9.11117096	      0.00000000	     -9.73228999	     -4.62580713	     11.50688130
     77.49951906	     -8.77742006	      1.48330664	      2.78720744	      0.11251429	      1.03987055	      0.21442317	      2.44474954	      3.12266104	      5.75708267	     64.95000133	     64.95000133	    -19.34936871	    -23.38102713	      0.00000000	     31.31207185	      4.53982963	     -1.44165933	     29.56251155	     29.56251155	      5.15308060	    -10.87217703	      0.00000000	    -10.20252644	     -5.12736637	     10.97361307
     77.50951906	     -8.47805086	      2.00686308	      3.36616573	      0.11072636	      1.03228978	      0.21358237	      4.40956062	      2.26740878	      4.70740311	     69.90815510	     69.90815510	    -18.06665253	    -22.94475239	      0.00000000	     31.71072026	      5.52950955	     -0.94076752	     33.83781403	     33.83781403	      7.64044288	    -12.59635264	      0.00000000	    -10.79447765	     -5.85512012	     10.00064060
     77.51951906	     -8.38823408	      2.51723943	      4.01388628	      0.10807004	      1.02557329	      0.21315042	      6.75865285	      1.43596297	      3.83531113	     74.58984696	     74.58984696	    -16.52276516	    -22.27890624	      0.00000000	     32.18386372	      6.25836400	     -0.75724750	     37.78469807	     37.78469807	      9.84012712	    -13.12325380	      0.00000000	    -11.31795718	     -6.62329093	      8.99467276
     77.52951906	     -8.43035510	      2.85187448	      4.55098422	      0.10524447	      1.02026095	      0.21340729	      9.35718239	      0.86325810	      3.26257444	     78.76400835	     78.76400835	    -14.77031679	    -21.54984111	      0.00000000	     32.19743684	      6.58120039	     -0.59149076	     40.84631233	     40.84631233	     12.44937420	    -12.32093696	      0.00000000	    -11.78788660	     -7.28113205	      7.99545812
     77.53951906	     -8.58199918	      3.07312431	      4.84772362	      0.10273839	      1.01618435	      0.21400271	     12.13883253	      0.44950161	      3.02172151	     82.37304542	     82.37304542	    -12.63227511	    -20.70050943	      0.00000000	     31.63577758	      6.60550065	     -0.58325722	     42.67732544	     42.67732544	     15.00530881	    -11.17876529	      0.00000000	    -12.07830002	     -7.81277209	      7.10100773
     77.54951906	     -8.69632347	      3.29125412	      4.90143148	      0.10073797	      1.01315623	      0.21468974	     14.90313966	      0.05411817	      3.01289440	     85.40209038	     85.40209038	    -10.49528485	    -19.97590598	      0.00000000	     30.49426107	      6.48087031	     -0.93384638	     43.58867961	     43.58867961	     17.46115024	    -10.00534010	      0.00000000	    -12.25643974	     -8.28650338	      6.36341606
     77.55951906	     -8.61439477	      3.46660924	      4.66663214	      0.09951810	      1.01139474	      0.21545729	     17.40111846	     -0.26916933	      3.22315331	     87.74855438	     87.74855438	     -8.45908158	    -19.28543534	      0.00000000	     28.80706065	      6.20099474	     -1.46718708	     43.99171815	     43.99171815	     19.70659943	     -8.86181196	      0.00000000	    -12.45703759	     -8.63360208	      5.88571676
     77.56951906	     -8.58573051	      3.60576965	      4.45627618	      0.09860104	      1.01091138	      0.21583837	     19.89348820	     -0.58863749	      3.37948635	     89.39844140	     89.39844140	     -7.03539461	    -19.06239749	      0.00000000	     26.93405032	      6.00344146	     -1.84583501	     43.92254843	     43.92254843	     21.35379111	     -8.00207426	      0.00000000	    -12.51836434	     -8.83900214	      5.28892006
     77.57951906	     -8.70105051	      3.67174601	      4.43999878	      0.09778689	      1.01184538	      0.21553490	     22.44463373	     -1.00336915	      3.23066835	     90.29828908	     90.29828908	     -6.29537820	    -19.31290402	      0.00000000	     24.93823605	      5.89542491	     -2.06286812	     43.30769214	     43.30769214	     22.54020179	     -7.16703894	      0.00000000	    -12.39513994	     -8.82207392	      4.43729457
     77.58951906	     -8.91062645	      3.55917075	      4.56594474	      0.09719339	      1.01414178	      0.21458471	     24.94422729	     -1.35892820	      2.82178787	     90.47313779	     90.47313779	     -6.04029384	    -19.94045449	      0.00000000	     22.83111548	      5.74362359	     -2.02603691	     42.22811300	     42.22811300	     23.24162444	     -6.36346279	      0.00000000	    -12.13154780	     -8.47204988	      3.30904588
     77.59951906	     -9.03651359	      3.10558664	      4.84160403	      0.09714744	      1.01772517	      0.21324208	     27.10262188	     -1.44398212	      2.04031584	     89.85782227	     89.85782227	     -6.16214019	    -21.15801305	      0.00000000	     20.49347546	      5.34912404	     -1.50298990	     40.81132844	     40.81132844	     23.40036139	     -5.62829469	      0.00000000	    -11.86053001	     -7.61050510	      1.95740883
     77.60951906	     -9.29422424	      2.53258501	      5.17471732	      0.09756943	      1.02207361	      0.21153796	     29.18680900	     -1.50462584	      1.10454379	     88.62164423	     88.62164423	     -5.93845124	    -22.16741478	      0.00000000	     18.17259906	      4.92815194	     -0.75916040	     39.05171548	     39.05171548	     22.97204316	     -5.31588546	      0.00000000	    -11.34662182	     -6.53486211	      0.62758610
     77.61951906	     -9.45195710	      1.89510147	      5.41854979	      0.09862378	      1.02740539	      0.20981394	     30.91047169	     -1.47550188	      0.12026048	     86.74936378	     86.74936378	     -5.90168946	    -23.35332703	      0.00000000	     15.63652774	      4.41501032	     -0.02049644	     36.97448240	     36.97448240	     21.82767266	     -5.36009384	      0.00000000	    -10.88291989	     -5.35034792	     -0.54366196
     77.62951906	    -10.13899672	      1.40129253	      5.31912394	      0.09975010	      1.03249706	      0.20857098	     33.10709484	     -1.43387534	     -0.42708672	     84.56253012	     84.56253012	     -5.10534437	    -23.48339631	      0.00000000	     13.77131007	      3.88003373	      0.06888409	     35.03175915	     35.03175915	     20.38333608	     -4.76577317	      0.00000000	     -9.77183973	     -4.44635168	     -1.21326249
     77.63951906	     -9.60531896	      0.66742750	      5.48421591	      0.10218878	      1.04021855	      0.20706537	     33.44276731	     -1.13354260	     -1.51421258	     81.34263851	     81.34263851	     -5.65935243	    -24.88616995	      0.00000000	     10.43288914	      3.19070041	      1.05850940	     32.61541079	     32.61541079	     17.57919883	     -5.68345316	      0.00000000	    -10.00336987	     -3.10054768	     -2.22786084
     77.64951906	     -9.51369604	      0.25518045	      5.26450199	      0.10469499	      1.04756989	      0.20612872	     34.14931093	     -0.93841070	     -2.05517970	     77.90117068	     77.90117068	     -5.78536913	    -25.26335552	      0.00000000	      7.66025385	      2.63935844	      1.05977950	     30.26417524	     30.26417524	     14.65463588	     -5.72782059	      0.00000000	     -9.72683115	     -2.23157720	     -2.75595013
     77.65951906	     -9.30982446	     -0.02433059	      4.95282446	      0.10761193	      1.05525163	      0.20546610	     34.45803722	     -0.73024436	     -2.41921267	     73.97680428	     73.97680428	     -5.89179081	    -25.27192886	      0.00000000	      4.84592760	      2.18347006	      0.87203984	     27.95310471	     27.95310471	     11.35801431	     -5.64446460	      0.00000000	     -9.57157354	     -1.54292635	     -3.21698812
     77.66951906	     -9.16594110	     -0.39225408	      4.47409725	      0.11076196	      1.06289707	      0.20523362	     34.58061653	     -0.24365668	     -2.60791173	     69.55568320	     69.55568320	     -5.97757898	    -24.80521907	      0.00000000	      2.30401183	      1.56587404	      0.20803984	     25.85067865	     25.85067865	      7.72439443	     -5.37632128	      0.00000000	     -9.32814879	     -0.79565079	     -3.41320866
     77.67951906	     -8.91474804	     -0.64448384	      4.00779661	      0.11425601	      1.07043358	      0.20506473	     34.32875028	      0.19294185	     -2.67890983	     64.72953916	     64.72953916	     -6.17484083	    -24.05088721	      0.00000000	     -0.28586975	      1.08231188	     -0.53876642	     23.73073606	     23.73073606	      3.76285624	     -5.11464837	      0.00000000	     -9.19161951	     -0.18787802	     -3.66074937
